<?xml version="1.0" standalone="no"?>
<!DOCTYPE svg PUBLIC "-//W3C//DTD SVG 20010904//EN"
 "http://www.w3.org/TR/2001/REC-SVG-20010904/DTD/svg10.dtd">
<svg version="1.0" xmlns="http://www.w3.org/2000/svg"
 width="466.000000pt" height="466.000000pt" viewBox="0 0 466.000000 466.000000"
 preserveAspectRatio="xMidYMid meet">
<metadata>
Created by potrace 1.14, written by Peter Selinger 2001-2017
</metadata>
<g transform="translate(0.000000,466.000000) scale(0.100000,-0.100000)"
fill="#000000" stroke="none">
<path d="M2220 4635 c-19 -12 -190 -111 -380 -220 -190 -108 -357 -206 -372
-216 -15 -10 -29 -19 -32 -19 -3 0 -29 -14 -58 -31 -29 -18 -71 -42 -93 -54
-22 -13 -166 -96 -320 -185 -154 -89 -355 -205 -447 -258 l-168 -96 -1 -51
c-2 -196 -1 -2157 2 -2159 3 -3 579 -337 684 -396 17 -10 75 -43 130 -75 55
-32 276 -159 490 -283 215 -124 407 -236 427 -249 21 -12 40 -23 42 -23 3 0
32 -16 65 -35 32 -19 62 -35 65 -35 3 0 6 141 6 314 l0 313 -222 129 c-123 70
-317 182 -433 249 -115 67 -321 186 -458 264 -136 79 -247 148 -248 155 -1 16
-1 1485 0 1528 l1 36 248 143 c136 78 283 163 327 189 44 25 161 93 260 150
99 57 232 134 296 171 64 38 142 82 173 99 l57 31 42 -23 c113 -64 597 -344
629 -365 21 -12 40 -23 43 -23 3 0 22 -11 43 -23 20 -13 57 -35 82 -49 25 -14
152 -87 283 -163 213 -123 237 -139 238 -163 0 -15 1 -367 1 -783 0 -416 3
-761 7 -766 3 -5 87 -56 186 -113 99 -57 217 -125 263 -152 45 -26 85 -48 88
-48 3 0 2 312 -1 693 -4 380 -8 873 -10 1095 -2 222 -5 405 -7 407 -1 1 -106
63 -233 137 -126 74 -342 202 -480 283 -137 81 -265 156 -283 167 -37 20 -214
125 -447 264 -82 49 -154 91 -160 93 -5 2 -60 35 -122 72 -172 104 -162 100
-203 74z"/>
<path d="M2468 2077 l-88 -50 0 -1013 0 -1012 88 50 c48 28 107 62 132 76 25
13 50 28 55 32 6 4 30 19 55 32 61 34 1095 632 1348 779 51 30 100 59 110 64
9 6 48 27 86 49 37 21 64 42 59 46 -7 7 -59 37 -238 140 -98 56 -715 412 -900
520 -121 70 -240 138 -265 152 -126 71 -296 171 -304 179 -19 17 -52 7 -138
-44z"/>
</g>
</svg>
